<?xml version="1.0" encoding="utf-8" standalone="no"?>
<!DOCTYPE svg PUBLIC "-//W3C//DTD SVG 1.1//EN"
  "http://www.w3.org/Graphics/SVG/1.1/DTD/svg11.dtd">
<svg xmlns:xlink="http://www.w3.org/1999/xlink" width="864pt" height="432pt" viewBox="0 0 864 432" xmlns="http://www.w3.org/2000/svg" version="1.1">
 <metadata>
  <rdf:RDF xmlns:dc="http://purl.org/dc/elements/1.1/" xmlns:cc="http://creativecommons.org/ns#" xmlns:rdf="http://www.w3.org/1999/02/22-rdf-syntax-ns#">
   <cc:Work>
    <dc:type rdf:resource="http://purl.org/dc/dcmitype/StillImage"/>
    <dc:date>2026-03-07T13:08:08.325415</dc:date>
    <dc:format>image/svg+xml</dc:format>
    <dc:creator>
     <cc:Agent>
      <dc:title>Matplotlib v3.10.8, https://matplotlib.org/</dc:title>
     </cc:Agent>
    </dc:creator>
   </cc:Work>
  </rdf:RDF>
 </metadata>
 <defs>
  <style type="text/css">*{stroke-linejoin: round; stroke-linecap: butt}</style>
 </defs>
 <g id="figure_1">
  <g id="patch_1">
   <path d="M 0 432 
L 864 432 
L 864 0 
L 0 0 
z
" style="fill: #ffffff"/>
  </g>
  <g id="axes_1">
   <g id="patch_2">
    <path d="M 47.72 390.04 
L 853.2 390.04 
L 853.2 26.88 
L 47.72 26.88 
z
" style="fill: #ffffff"/>
   </g>
   <g id="matplotlib.axis_1">
    <g id="xtick_1">
     <g id="line2d_1">
      <defs>
       <path id="m8975cdc57a" d="M 0 0 
L 0 3.5 
" style="stroke: #000000; stroke-width: 0.8"/>
      </defs>
      <g>
       <use xlink:href="#m8975cdc57a" x="84.331995" y="390.04" style="stroke: #000000; stroke-width: 0.8"/>
      </g>
     </g>
     <g id="text_1">
      <!-- 0.0 -->
      <g transform="translate(76.380433 404.638438) scale(0.1 -0.1)">
       <defs>
        <path id="DejaVuSans-30" d="M 2034 4250 
Q 1547 4250 1301 3770 
Q 1056 3291 1056 2328 
Q 1056 1369 1301 889 
Q 1547 409 2034 409 
Q 2525 409 2770 889 
Q 3016 1369 3016 2328 
Q 3016 3291 2770 3770 
Q 2525 4250 2034 4250 
z
M 2034 4750 
Q 2819 4750 3233 4129 
Q 3647 3509 3647 2328 
Q 3647 1150 3233 529 
Q 2819 -91 2034 -91 
Q 1250 -91 836 529 
Q 422 1150 422 2328 
Q 422 3509 836 4129 
Q 1250 4750 2034 4750 
z
" transform="scale(0.015625)"/>
        <path id="DejaVuSans-2e" d="M 684 794 
L 1344 794 
L 1344 0 
L 684 0 
L 684 794 
z
" transform="scale(0.015625)"/>
       </defs>
       <use xlink:href="#DejaVuSans-30"/>
       <use xlink:href="#DejaVuSans-2e" transform="translate(63.623047 0)"/>
       <use xlink:href="#DejaVuSans-30" transform="translate(95.410156 0)"/>
      </g>
     </g>
    </g>
    <g id="xtick_2">
     <g id="line2d_2">
      <g>
       <use xlink:href="#m8975cdc57a" x="230.783197" y="390.04" style="stroke: #000000; stroke-width: 0.8"/>
      </g>
     </g>
     <g id="text_2">
      <!-- 0.2 -->
      <g transform="translate(222.831635 404.638438) scale(0.1 -0.1)">
       <defs>
        <path id="DejaVuSans-32" d="M 1228 531 
L 3431 531 
L 3431 0 
L 469 0 
L 469 531 
Q 828 903 1448 1529 
Q 2069 2156 2228 2338 
Q 2531 2678 2651 2914 
Q 2772 3150 2772 3378 
Q 2772 3750 2511 3984 
Q 2250 4219 1831 4219 
Q 1534 4219 1204 4116 
Q 875 4013 500 3803 
L 500 4441 
Q 881 4594 1212 4672 
Q 1544 4750 1819 4750 
Q 2544 4750 2975 4387 
Q 3406 4025 3406 3419 
Q 3406 3131 3298 2873 
Q 3191 2616 2906 2266 
Q 2828 2175 2409 1742 
Q 1991 1309 1228 531 
z
" transform="scale(0.015625)"/>
       </defs>
       <use xlink:href="#DejaVuSans-30"/>
       <use xlink:href="#DejaVuSans-2e" transform="translate(63.623047 0)"/>
       <use xlink:href="#DejaVuSans-32" transform="translate(95.410156 0)"/>
      </g>
     </g>
    </g>
    <g id="xtick_3">
     <g id="line2d_3">
      <g>
       <use xlink:href="#m8975cdc57a" x="377.234399" y="390.04" style="stroke: #000000; stroke-width: 0.8"/>
      </g>
     </g>
     <g id="text_3">
      <!-- 0.4 -->
      <g transform="translate(369.282837 404.638438) scale(0.1 -0.1)">
       <defs>
        <path id="DejaVuSans-34" d="M 2419 4116 
L 825 1625 
L 2419 1625 
L 2419 4116 
z
M 2253 4666 
L 3047 4666 
L 3047 1625 
L 3713 1625 
L 3713 1100 
L 3047 1100 
L 3047 0 
L 2419 0 
L 2419 1100 
L 313 1100 
L 313 1709 
L 2253 4666 
z
" transform="scale(0.015625)"/>
       </defs>
       <use xlink:href="#DejaVuSans-30"/>
       <use xlink:href="#DejaVuSans-2e" transform="translate(63.623047 0)"/>
       <use xlink:href="#DejaVuSans-34" transform="translate(95.410156 0)"/>
      </g>
     </g>
    </g>
    <g id="xtick_4">
     <g id="line2d_4">
      <g>
       <use xlink:href="#m8975cdc57a" x="523.685601" y="390.04" style="stroke: #000000; stroke-width: 0.8"/>
      </g>
     </g>
     <g id="text_4">
      <!-- 0.6 -->
      <g transform="translate(515.734038 404.638438) scale(0.1 -0.1)">
       <defs>
        <path id="DejaVuSans-36" d="M 2113 2584 
Q 1688 2584 1439 2293 
Q 1191 2003 1191 1497 
Q 1191 994 1439 701 
Q 1688 409 2113 409 
Q 2538 409 2786 701 
Q 3034 994 3034 1497 
Q 3034 2003 2786 2293 
Q 2538 2584 2113 2584 
z
M 3366 4563 
L 3366 3988 
Q 3128 4100 2886 4159 
Q 2644 4219 2406 4219 
Q 1781 4219 1451 3797 
Q 1122 3375 1075 2522 
Q 1259 2794 1537 2939 
Q 1816 3084 2150 3084 
Q 2853 3084 3261 2657 
Q 3669 2231 3669 1497 
Q 3669 778 3244 343 
Q 2819 -91 2113 -91 
Q 1303 -91 875 529 
Q 447 1150 447 2328 
Q 447 3434 972 4092 
Q 1497 4750 2381 4750 
Q 2619 4750 2861 4703 
Q 3103 4656 3366 4563 
z
" transform="scale(0.015625)"/>
       </defs>
       <use xlink:href="#DejaVuSans-30"/>
       <use xlink:href="#DejaVuSans-2e" transform="translate(63.623047 0)"/>
       <use xlink:href="#DejaVuSans-36" transform="translate(95.410156 0)"/>
      </g>
     </g>
    </g>
    <g id="xtick_5">
     <g id="line2d_5">
      <g>
       <use xlink:href="#m8975cdc57a" x="670.136803" y="390.04" style="stroke: #000000; stroke-width: 0.8"/>
      </g>
     </g>
     <g id="text_5">
      <!-- 0.8 -->
      <g transform="translate(662.18524 404.638438) scale(0.1 -0.1)">
       <defs>
        <path id="DejaVuSans-38" d="M 2034 2216 
Q 1584 2216 1326 1975 
Q 1069 1734 1069 1313 
Q 1069 891 1326 650 
Q 1584 409 2034 409 
Q 2484 409 2743 651 
Q 3003 894 3003 1313 
Q 3003 1734 2745 1975 
Q 2488 2216 2034 2216 
z
M 1403 2484 
Q 997 2584 770 2862 
Q 544 3141 544 3541 
Q 544 4100 942 4425 
Q 1341 4750 2034 4750 
Q 2731 4750 3128 4425 
Q 3525 4100 3525 3541 
Q 3525 3141 3298 2862 
Q 3072 2584 2669 2484 
Q 3125 2378 3379 2068 
Q 3634 1759 3634 1313 
Q 3634 634 3220 271 
Q 2806 -91 2034 -91 
Q 1263 -91 848 271 
Q 434 634 434 1313 
Q 434 1759 690 2068 
Q 947 2378 1403 2484 
z
M 1172 3481 
Q 1172 3119 1398 2916 
Q 1625 2713 2034 2713 
Q 2441 2713 2670 2916 
Q 2900 3119 2900 3481 
Q 2900 3844 2670 4047 
Q 2441 4250 2034 4250 
Q 1625 4250 1398 4047 
Q 1172 3844 1172 3481 
z
" transform="scale(0.015625)"/>
       </defs>
       <use xlink:href="#DejaVuSans-30"/>
       <use xlink:href="#DejaVuSans-2e" transform="translate(63.623047 0)"/>
       <use xlink:href="#DejaVuSans-38" transform="translate(95.410156 0)"/>
      </g>
     </g>
    </g>
    <g id="xtick_6">
     <g id="line2d_6">
      <g>
       <use xlink:href="#m8975cdc57a" x="816.588005" y="390.04" style="stroke: #000000; stroke-width: 0.8"/>
      </g>
     </g>
     <g id="text_6">
      <!-- 1.0 -->
      <g transform="translate(808.636442 404.638438) scale(0.1 -0.1)">
       <defs>
        <path id="DejaVuSans-31" d="M 794 531 
L 1825 531 
L 1825 4091 
L 703 3866 
L 703 4441 
L 1819 4666 
L 2450 4666 
L 2450 531 
L 3481 531 
L 3481 0 
L 794 0 
L 794 531 
z
" transform="scale(0.015625)"/>
       </defs>
       <use xlink:href="#DejaVuSans-31"/>
       <use xlink:href="#DejaVuSans-2e" transform="translate(63.623047 0)"/>
       <use xlink:href="#DejaVuSans-30" transform="translate(95.410156 0)"/>
      </g>
     </g>
    </g>
    <g id="text_7">
     <!-- Number of Keys -->
     <g transform="translate(410.706875 418.316562) scale(0.1 -0.1)">
      <defs>
       <path id="DejaVuSans-4e" d="M 628 4666 
L 1478 4666 
L 3547 763 
L 3547 4666 
L 4159 4666 
L 4159 0 
L 3309 0 
L 1241 3903 
L 1241 0 
L 628 0 
L 628 4666 
z
" transform="scale(0.015625)"/>
       <path id="DejaVuSans-75" d="M 544 1381 
L 544 3500 
L 1119 3500 
L 1119 1403 
Q 1119 906 1312 657 
Q 1506 409 1894 409 
Q 2359 409 2629 706 
Q 2900 1003 2900 1516 
L 2900 3500 
L 3475 3500 
L 3475 0 
L 2900 0 
L 2900 538 
Q 2691 219 2414 64 
Q 2138 -91 1772 -91 
Q 1169 -91 856 284 
Q 544 659 544 1381 
z
M 1991 3584 
L 1991 3584 
z
" transform="scale(0.015625)"/>
       <path id="DejaVuSans-6d" d="M 3328 2828 
Q 3544 3216 3844 3400 
Q 4144 3584 4550 3584 
Q 5097 3584 5394 3201 
Q 5691 2819 5691 2113 
L 5691 0 
L 5113 0 
L 5113 2094 
Q 5113 2597 4934 2840 
Q 4756 3084 4391 3084 
Q 3944 3084 3684 2787 
Q 3425 2491 3425 1978 
L 3425 0 
L 2847 0 
L 2847 2094 
Q 2847 2600 2669 2842 
Q 2491 3084 2119 3084 
Q 1678 3084 1418 2786 
Q 1159 2488 1159 1978 
L 1159 0 
L 581 0 
L 581 3500 
L 1159 3500 
L 1159 2956 
Q 1356 3278 1631 3431 
Q 1906 3584 2284 3584 
Q 2666 3584 2933 3390 
Q 3200 3197 3328 2828 
z
" transform="scale(0.015625)"/>
       <path id="DejaVuSans-62" d="M 3116 1747 
Q 3116 2381 2855 2742 
Q 2594 3103 2138 3103 
Q 1681 3103 1420 2742 
Q 1159 2381 1159 1747 
Q 1159 1113 1420 752 
Q 1681 391 2138 391 
Q 2594 391 2855 752 
Q 3116 1113 3116 1747 
z
M 1159 2969 
Q 1341 3281 1617 3432 
Q 1894 3584 2278 3584 
Q 2916 3584 3314 3078 
Q 3713 2572 3713 1747 
Q 3713 922 3314 415 
Q 2916 -91 2278 -91 
Q 1894 -91 1617 61 
Q 1341 213 1159 525 
L 1159 0 
L 581 0 
L 581 4863 
L 1159 4863 
L 1159 2969 
z
" transform="scale(0.015625)"/>
       <path id="DejaVuSans-65" d="M 3597 1894 
L 3597 1613 
L 953 1613 
Q 991 1019 1311 708 
Q 1631 397 2203 397 
Q 2534 397 2845 478 
Q 3156 559 3463 722 
L 3463 178 
Q 3153 47 2828 -22 
Q 2503 -91 2169 -91 
Q 1331 -91 842 396 
Q 353 884 353 1716 
Q 353 2575 817 3079 
Q 1281 3584 2069 3584 
Q 2775 3584 3186 3129 
Q 3597 2675 3597 1894 
z
M 3022 2063 
Q 3016 2534 2758 2815 
Q 2500 3097 2075 3097 
Q 1594 3097 1305 2825 
Q 1016 2553 972 2059 
L 3022 2063 
z
" transform="scale(0.015625)"/>
       <path id="DejaVuSans-72" d="M 2631 2963 
Q 2534 3019 2420 3045 
Q 2306 3072 2169 3072 
Q 1681 3072 1420 2755 
Q 1159 2438 1159 1844 
L 1159 0 
L 581 0 
L 581 3500 
L 1159 3500 
L 1159 2956 
Q 1341 3275 1631 3429 
Q 1922 3584 2338 3584 
Q 2397 3584 2469 3576 
Q 2541 3569 2628 3553 
L 2631 2963 
z
" transform="scale(0.015625)"/>
       <path id="DejaVuSans-20" transform="scale(0.015625)"/>
       <path id="DejaVuSans-6f" d="M 1959 3097 
Q 1497 3097 1228 2736 
Q 959 2375 959 1747 
Q 959 1119 1226 758 
Q 1494 397 1959 397 
Q 2419 397 2687 759 
Q 2956 1122 2956 1747 
Q 2956 2369 2687 2733 
Q 2419 3097 1959 3097 
z
M 1959 3584 
Q 2709 3584 3137 3096 
Q 3566 2609 3566 1747 
Q 3566 888 3137 398 
Q 2709 -91 1959 -91 
Q 1206 -91 779 398 
Q 353 888 353 1747 
Q 353 2609 779 3096 
Q 1206 3584 1959 3584 
z
" transform="scale(0.015625)"/>
       <path id="DejaVuSans-66" d="M 2375 4863 
L 2375 4384 
L 1825 4384 
Q 1516 4384 1395 4259 
Q 1275 4134 1275 3809 
L 1275 3500 
L 2222 3500 
L 2222 3053 
L 1275 3053 
L 1275 0 
L 697 0 
L 697 3053 
L 147 3053 
L 147 3500 
L 697 3500 
L 697 3744 
Q 697 4328 969 4595 
Q 1241 4863 1831 4863 
L 2375 4863 
z
" transform="scale(0.015625)"/>
       <path id="DejaVuSans-4b" d="M 628 4666 
L 1259 4666 
L 1259 2694 
L 3353 4666 
L 4166 4666 
L 1850 2491 
L 4331 0 
L 3500 0 
L 1259 2247 
L 1259 0 
L 628 0 
L 628 4666 
z
" transform="scale(0.015625)"/>
       <path id="DejaVuSans-79" d="M 2059 -325 
Q 1816 -950 1584 -1140 
Q 1353 -1331 966 -1331 
L 506 -1331 
L 506 -850 
L 844 -850 
Q 1081 -850 1212 -737 
Q 1344 -625 1503 -206 
L 1606 56 
L 191 3500 
L 800 3500 
L 1894 763 
L 2988 3500 
L 3597 3500 
L 2059 -325 
z
" transform="scale(0.015625)"/>
       <path id="DejaVuSans-73" d="M 2834 3397 
L 2834 2853 
Q 2591 2978 2328 3040 
Q 2066 3103 1784 3103 
Q 1356 3103 1142 2972 
Q 928 2841 928 2578 
Q 928 2378 1081 2264 
Q 1234 2150 1697 2047 
L 1894 2003 
Q 2506 1872 2764 1633 
Q 3022 1394 3022 966 
Q 3022 478 2636 193 
Q 2250 -91 1575 -91 
Q 1294 -91 989 -36 
Q 684 19 347 128 
L 347 722 
Q 666 556 975 473 
Q 1284 391 1588 391 
Q 1994 391 2212 530 
Q 2431 669 2431 922 
Q 2431 1156 2273 1281 
Q 2116 1406 1581 1522 
L 1381 1569 
Q 847 1681 609 1914 
Q 372 2147 372 2553 
Q 372 3047 722 3315 
Q 1072 3584 1716 3584 
Q 2034 3584 2315 3537 
Q 2597 3491 2834 3397 
z
" transform="scale(0.015625)"/>
      </defs>
      <use xlink:href="#DejaVuSans-4e"/>
      <use xlink:href="#DejaVuSans-75" transform="translate(74.804688 0)"/>
      <use xlink:href="#DejaVuSans-6d" transform="translate(138.183594 0)"/>
      <use xlink:href="#DejaVuSans-62" transform="translate(235.595703 0)"/>
      <use xlink:href="#DejaVuSans-65" transform="translate(299.072266 0)"/>
      <use xlink:href="#DejaVuSans-72" transform="translate(360.595703 0)"/>
      <use xlink:href="#DejaVuSans-20" transform="translate(401.708984 0)"/>
      <use xlink:href="#DejaVuSans-6f" transform="translate(433.496094 0)"/>
      <use xlink:href="#DejaVuSans-66" transform="translate(494.677734 0)"/>
      <use xlink:href="#DejaVuSans-20" transform="translate(529.882812 0)"/>
      <use xlink:href="#DejaVuSans-4b" transform="translate(561.669922 0)"/>
      <use xlink:href="#DejaVuSans-65" transform="translate(622.246094 0)"/>
      <use xlink:href="#DejaVuSans-79" transform="translate(683.769531 0)"/>
      <use xlink:href="#DejaVuSans-73" transform="translate(742.949219 0)"/>
     </g>
    </g>
    <g id="text_8">
     <!-- 1e6 -->
     <g transform="translate(834.321875 417.316562) scale(0.1 -0.1)">
      <use xlink:href="#DejaVuSans-31"/>
      <use xlink:href="#DejaVuSans-65" transform="translate(63.623047 0)"/>
      <use xlink:href="#DejaVuSans-36" transform="translate(125.146484 0)"/>
     </g>
    </g>
   </g>
   <g id="matplotlib.axis_2">
    <g id="ytick_1">
     <g id="line2d_7">
      <defs>
       <path id="m1d37ad9685" d="M 0 0 
L -3.5 0 
" style="stroke: #000000; stroke-width: 0.8"/>
      </defs>
      <g>
       <use xlink:href="#m1d37ad9685" x="47.72" y="373.532727" style="stroke: #000000; stroke-width: 0.8"/>
      </g>
     </g>
     <g id="text_9">
      <!-- 0.0 -->
      <g transform="translate(24.816875 377.331946) scale(0.1 -0.1)">
       <use xlink:href="#DejaVuSans-30"/>
       <use xlink:href="#DejaVuSans-2e" transform="translate(63.623047 0)"/>
       <use xlink:href="#DejaVuSans-30" transform="translate(95.410156 0)"/>
      </g>
     </g>
    </g>
    <g id="ytick_2">
     <g id="line2d_8">
      <g>
       <use xlink:href="#m1d37ad9685" x="47.72" y="311.991244" style="stroke: #000000; stroke-width: 0.8"/>
      </g>
     </g>
     <g id="text_10">
      <!-- 0.2 -->
      <g transform="translate(24.816875 315.790463) scale(0.1 -0.1)">
       <use xlink:href="#DejaVuSans-30"/>
       <use xlink:href="#DejaVuSans-2e" transform="translate(63.623047 0)"/>
       <use xlink:href="#DejaVuSans-32" transform="translate(95.410156 0)"/>
      </g>
     </g>
    </g>
    <g id="ytick_3">
     <g id="line2d_9">
      <g>
       <use xlink:href="#m1d37ad9685" x="47.72" y="250.44976" style="stroke: #000000; stroke-width: 0.8"/>
      </g>
     </g>
     <g id="text_11">
      <!-- 0.4 -->
      <g transform="translate(24.816875 254.248979) scale(0.1 -0.1)">
       <use xlink:href="#DejaVuSans-30"/>
       <use xlink:href="#DejaVuSans-2e" transform="translate(63.623047 0)"/>
       <use xlink:href="#DejaVuSans-34" transform="translate(95.410156 0)"/>
      </g>
     </g>
    </g>
    <g id="ytick_4">
     <g id="line2d_10">
      <g>
       <use xlink:href="#m1d37ad9685" x="47.72" y="188.908277" style="stroke: #000000; stroke-width: 0.8"/>
      </g>
     </g>
     <g id="text_12">
      <!-- 0.6 -->
      <g transform="translate(24.816875 192.707496) scale(0.1 -0.1)">
       <use xlink:href="#DejaVuSans-30"/>
       <use xlink:href="#DejaVuSans-2e" transform="translate(63.623047 0)"/>
       <use xlink:href="#DejaVuSans-36" transform="translate(95.410156 0)"/>
      </g>
     </g>
    </g>
    <g id="ytick_5">
     <g id="line2d_11">
      <g>
       <use xlink:href="#m1d37ad9685" x="47.72" y="127.366793" style="stroke: #000000; stroke-width: 0.8"/>
      </g>
     </g>
     <g id="text_13">
      <!-- 0.8 -->
      <g transform="translate(24.816875 131.166012) scale(0.1 -0.1)">
       <use xlink:href="#DejaVuSans-30"/>
       <use xlink:href="#DejaVuSans-2e" transform="translate(63.623047 0)"/>
       <use xlink:href="#DejaVuSans-38" transform="translate(95.410156 0)"/>
      </g>
     </g>
    </g>
    <g id="ytick_6">
     <g id="line2d_12">
      <g>
       <use xlink:href="#m1d37ad9685" x="47.72" y="65.82531" style="stroke: #000000; stroke-width: 0.8"/>
      </g>
     </g>
     <g id="text_14">
      <!-- 1.0 -->
      <g transform="translate(24.816875 69.624529) scale(0.1 -0.1)">
       <use xlink:href="#DejaVuSans-31"/>
       <use xlink:href="#DejaVuSans-2e" transform="translate(63.623047 0)"/>
       <use xlink:href="#DejaVuSans-30" transform="translate(95.410156 0)"/>
      </g>
     </g>
    </g>
    <g id="text_15">
     <!-- Memory (bytes) -->
     <g transform="translate(18.737188 248.060781) rotate(-90) scale(0.1 -0.1)">
      <defs>
       <path id="DejaVuSans-4d" d="M 628 4666 
L 1569 4666 
L 2759 1491 
L 3956 4666 
L 4897 4666 
L 4897 0 
L 4281 0 
L 4281 4097 
L 3078 897 
L 2444 897 
L 1241 4097 
L 1241 0 
L 628 0 
L 628 4666 
z
" transform="scale(0.015625)"/>
       <path id="DejaVuSans-28" d="M 1984 4856 
Q 1566 4138 1362 3434 
Q 1159 2731 1159 2009 
Q 1159 1288 1364 580 
Q 1569 -128 1984 -844 
L 1484 -844 
Q 1016 -109 783 600 
Q 550 1309 550 2009 
Q 550 2706 781 3412 
Q 1013 4119 1484 4856 
L 1984 4856 
z
" transform="scale(0.015625)"/>
       <path id="DejaVuSans-74" d="M 1172 4494 
L 1172 3500 
L 2356 3500 
L 2356 3053 
L 1172 3053 
L 1172 1153 
Q 1172 725 1289 603 
Q 1406 481 1766 481 
L 2356 481 
L 2356 0 
L 1766 0 
Q 1100 0 847 248 
Q 594 497 594 1153 
L 594 3053 
L 172 3053 
L 172 3500 
L 594 3500 
L 594 4494 
L 1172 4494 
z
" transform="scale(0.015625)"/>
       <path id="DejaVuSans-29" d="M 513 4856 
L 1013 4856 
Q 1481 4119 1714 3412 
Q 1947 2706 1947 2009 
Q 1947 1309 1714 600 
Q 1481 -109 1013 -844 
L 513 -844 
Q 928 -128 1133 580 
Q 1338 1288 1338 2009 
Q 1338 2731 1133 3434 
Q 928 4138 513 4856 
z
" transform="scale(0.015625)"/>
      </defs>
      <use xlink:href="#DejaVuSans-4d"/>
      <use xlink:href="#DejaVuSans-65" transform="translate(86.279297 0)"/>
      <use xlink:href="#DejaVuSans-6d" transform="translate(147.802734 0)"/>
      <use xlink:href="#DejaVuSans-6f" transform="translate(245.214844 0)"/>
      <use xlink:href="#DejaVuSans-72" transform="translate(306.396484 0)"/>
      <use xlink:href="#DejaVuSans-79" transform="translate(347.509766 0)"/>
      <use xlink:href="#DejaVuSans-20" transform="translate(406.689453 0)"/>
      <use xlink:href="#DejaVuSans-28" transform="translate(438.476562 0)"/>
      <use xlink:href="#DejaVuSans-62" transform="translate(477.490234 0)"/>
      <use xlink:href="#DejaVuSans-79" transform="translate(540.966797 0)"/>
      <use xlink:href="#DejaVuSans-74" transform="translate(600.146484 0)"/>
      <use xlink:href="#DejaVuSans-65" transform="translate(639.355469 0)"/>
      <use xlink:href="#DejaVuSans-73" transform="translate(700.878906 0)"/>
      <use xlink:href="#DejaVuSans-29" transform="translate(752.978516 0)"/>
     </g>
    </g>
    <g id="text_16">
     <!-- 1e8 -->
     <g transform="translate(47.72 23.88) scale(0.1 -0.1)">
      <use xlink:href="#DejaVuSans-31"/>
      <use xlink:href="#DejaVuSans-65" transform="translate(63.623047 0)"/>
      <use xlink:href="#DejaVuSans-38" transform="translate(125.146484 0)"/>
     </g>
    </g>
   </g>
   <g id="line2d_13">
    <path d="M 84.332727 373.532727 
L 816.587273 373.532727 
L 816.587273 373.532727 
" clip-path="url(#p39412aeed6)" style="fill: none; stroke: #1f77b4; stroke-width: 1.5; stroke-linecap: square"/>
   </g>
   <g id="line2d_14">
    <path d="M 84.332727 373.532358 
L 816.587273 102.750372 
L 816.587273 102.750372 
" clip-path="url(#p39412aeed6)" style="fill: none; stroke: #ff7f0e; stroke-width: 1.5; stroke-linecap: square"/>
   </g>
   <g id="line2d_15">
    <path d="M 84.332727 373.532155 
L 284.207131 291.941004 
L 317.568715 278.3224 
L 517.440922 196.732144 
L 550.802506 183.11354 
L 750.674713 101.523284 
L 784.036296 87.90468 
L 816.587273 74.616979 
L 816.587273 74.616979 
" clip-path="url(#p39412aeed6)" style="fill: none; stroke: #2ca02c; stroke-width: 1.5; stroke-linecap: square"/>
   </g>
   <g id="line2d_16">
    <path d="M 84.332727 373.53218 
L 284.207131 291.941028 
L 317.568715 278.322424 
L 517.440922 196.732169 
L 550.802506 183.113565 
L 750.674713 101.523309 
L 784.036296 87.904705 
L 816.587273 74.617003 
L 816.587273 74.617003 
" clip-path="url(#p39412aeed6)" style="fill: none; stroke: #d62728; stroke-width: 1.5; stroke-linecap: square"/>
   </g>
   <g id="line2d_17">
    <path d="M 84.332727 373.532475 
L 217.786385 372.860568 
L 250.76207 372.694541 
L 384.215728 372.022635 
L 417.191413 371.856608 
L 550.644338 371.184704 
L 583.620023 371.018678 
L 717.073681 370.346771 
L 750.049366 370.180744 
L 816.587273 369.84574 
L 816.587273 369.84574 
" clip-path="url(#p39412aeed6)" style="fill: none; stroke: #9467bd; stroke-width: 1.5; stroke-linecap: square"/>
   </g>
   <g id="line2d_18">
    <path d="M 84.332727 373.53213 
L 226.815834 320.125628 
L 262.0703 306.911302 
L 404.553406 253.5048 
L 439.80714 240.290751 
L 582.288049 186.88507 
L 617.541783 173.671021 
L 760.022693 120.26534 
L 795.277158 107.051014 
L 816.587273 99.06341 
L 816.587273 99.06341 
" clip-path="url(#p39412aeed6)" style="fill: none; stroke: #8c564b; stroke-width: 1.5; stroke-linecap: square"/>
   </g>
   <g id="line2d_19">
    <path d="M 84.332727 373.532152 
L 185.643275 328.283613 
L 226.230761 310.155938 
L 327.540577 264.907726 
L 368.128063 246.780051 
L 469.437879 201.531838 
L 510.025365 183.404164 
L 611.335181 138.155951 
L 651.922667 120.028276 
L 753.232483 74.780063 
L 793.819969 56.652389 
L 816.587273 46.483782 
L 816.587273 46.483782 
" clip-path="url(#p39412aeed6)" style="fill: none; stroke: #e377c2; stroke-width: 1.5; stroke-linecap: square"/>
   </g>
   <g id="line2d_20">
    <path d="M 84.332727 373.532721 
L 586.725521 371.310464 
L 614.636923 371.187 
L 816.587273 370.293704 
L 816.587273 370.293704 
" clip-path="url(#p39412aeed6)" style="fill: none; stroke: #7f7f7f; stroke-width: 1.5; stroke-linecap: square"/>
   </g>
   <g id="line2d_21">
    <path d="M 84.332727 373.53189 
L 85.357153 373.070523 
L 85.601727 372.960084 
L 86.623224 372.499698 
L 86.867798 372.389262 
L 87.889295 371.928876 
L 88.133868 371.81844 
L 89.155365 371.358054 
L 89.399939 371.247618 
L 90.421436 370.787232 
L 90.66601 370.676796 
L 91.687507 370.216411 
L 91.93208 370.105974 
L 92.953577 369.645589 
L 93.198151 369.535153 
L 94.219648 369.074767 
L 94.464221 368.964331 
L 95.485719 368.503945 
L 95.730292 368.393509 
L 96.751789 367.933123 
L 96.996363 367.822687 
L 98.01786 367.362301 
L 98.262433 367.251865 
L 99.28393 366.791479 
L 99.528504 366.681043 
L 100.550001 366.220657 
L 100.794575 366.110221 
L 101.816072 365.649836 
L 102.060645 365.539399 
L 103.082142 365.079014 
L 103.326716 364.968578 
L 104.348213 364.508192 
L 104.592787 364.397756 
L 105.614284 363.93737 
L 105.858857 363.826931 
L 106.880354 363.366548 
L 107.124196 363.256355 
L 108.146425 362.795723 
L 108.390998 362.685287 
L 109.412496 362.224901 
L 109.657069 362.114465 
L 110.678566 361.654079 
L 110.92314 361.543643 
L 111.944637 361.083257 
L 112.18921 360.972821 
L 113.210708 360.512436 
L 113.455281 360.401999 
L 114.476778 359.941614 
L 114.721352 359.831178 
L 115.742849 359.370792 
L 115.987422 359.260356 
L 117.008919 358.79997 
L 117.253493 358.689534 
L 118.27499 358.229148 
L 118.519564 358.118712 
L 119.541061 357.658326 
L 119.785634 357.54789 
L 120.807131 357.087504 
L 121.051705 356.977068 
L 122.073202 356.516682 
L 122.317776 356.406246 
L 123.339273 355.945861 
L 123.583846 355.835424 
L 124.605343 355.375039 
L 124.849917 355.264603 
L 125.871414 354.804217 
L 126.115987 354.693778 
L 127.137485 354.233395 
L 127.382058 354.122956 
L 128.403555 353.662573 
L 128.647396 353.55238 
L 129.669626 353.091748 
L 129.914199 352.981312 
L 130.935697 352.520926 
L 131.18027 352.41049 
L 132.201767 351.950104 
L 132.446341 351.839668 
L 133.467838 351.379283 
L 133.712411 351.268846 
L 134.733908 350.808461 
L 134.978482 350.698024 
L 135.999979 350.237639 
L 136.244553 350.127203 
L 137.26605 349.666817 
L 137.510623 349.556381 
L 138.53212 349.095995 
L 138.776694 348.985559 
L 139.798191 348.525173 
L 140.042765 348.414737 
L 141.064262 347.954351 
L 141.308835 347.843915 
L 142.330332 347.383529 
L 142.574906 347.273093 
L 143.596403 346.812708 
L 143.840976 346.702271 
L 144.862474 346.241886 
L 145.107047 346.131449 
L 146.128544 345.671064 
L 146.373118 345.560628 
L 147.394615 345.100242 
L 147.639188 344.989803 
L 148.660685 344.52942 
L 148.905259 344.418981 
L 149.926756 343.958598 
L 150.170597 343.848405 
L 151.192827 343.387773 
L 151.4374 343.277337 
L 152.458897 342.816951 
L 152.703471 342.706515 
L 153.724968 342.246129 
L 153.969542 342.135693 
L 154.991039 341.675308 
L 155.235612 341.564871 
L 156.257109 341.104486 
L 156.501683 340.994049 
L 157.52318 340.533664 
L 157.767753 340.423228 
L 158.789251 339.962842 
L 159.033824 339.852406 
L 160.055321 339.39202 
L 160.299895 339.281584 
L 161.321392 338.821198 
L 161.565965 338.710762 
L 162.587463 338.250376 
L 162.832036 338.13994 
L 163.853533 337.679554 
L 164.098107 337.569118 
L 165.119604 337.108733 
L 165.364177 336.998296 
L 166.385674 336.537911 
L 166.630248 336.427474 
L 167.651745 335.967089 
L 167.896319 335.856653 
L 168.917816 335.396267 
L 169.162389 335.285828 
L 170.183886 334.825445 
L 170.42846 334.715006 
L 171.449957 334.25462 
L 171.694531 334.144184 
L 172.716028 333.683798 
L 172.960601 333.573362 
L 173.982098 333.112976 
L 174.226672 333.00254 
L 175.248169 332.542154 
L 175.492742 332.431718 
L 176.51424 331.971333 
L 176.758813 331.860896 
L 177.78031 331.400511 
L 178.024884 331.290075 
L 179.046381 330.829689 
L 179.290954 330.719253 
L 180.312452 330.258867 
L 180.557025 330.148431 
L 181.578522 329.688045 
L 181.823096 329.577609 
L 182.844593 329.117223 
L 183.089166 329.006787 
L 184.110663 328.546401 
L 184.355237 328.435965 
L 185.376734 327.975579 
L 185.621308 327.865143 
L 186.642805 327.404758 
L 186.887378 327.294321 
L 187.908875 326.833936 
L 188.153449 326.7235 
L 189.174946 326.263114 
L 189.41952 326.152678 
L 190.441017 325.692292 
L 190.68559 325.581853 
L 191.707087 325.12147 
L 191.950929 325.011277 
L 192.973158 324.550645 
L 193.217731 324.440209 
L 194.239229 323.979823 
L 194.483802 323.869387 
L 195.505299 323.409001 
L 195.749873 323.298565 
L 196.77137 322.83818 
L 197.015943 322.727743 
L 198.037441 322.267358 
L 198.282014 322.156921 
L 199.303511 321.696536 
L 199.548085 321.5861 
L 200.569582 321.125714 
L 200.814155 321.015278 
L 201.835652 320.554892 
L 202.080226 320.444456 
L 203.101723 319.98407 
L 203.346297 319.873634 
L 204.367794 319.413248 
L 204.612367 319.302812 
L 205.633864 318.842426 
L 205.878438 318.73199 
L 206.899935 318.271604 
L 207.144508 318.161168 
L 208.166006 317.700783 
L 208.410579 317.590346 
L 209.432076 317.129961 
L 209.67665 317.019525 
L 210.698147 316.559139 
L 210.94272 316.4487 
L 211.964218 315.988317 
L 212.208791 315.877878 
L 213.230288 315.417495 
L 213.474129 315.307302 
L 214.496359 314.84667 
L 214.740932 314.736234 
L 215.762429 314.275848 
L 216.007003 314.165412 
L 217.0285 313.705026 
L 217.273074 313.59459 
L 218.294571 313.134205 
L 218.539144 313.023768 
L 219.560641 312.563383 
L 219.805215 312.452946 
L 220.826712 311.992561 
L 221.071286 311.882125 
L 222.092783 311.421739 
L 222.337356 311.311303 
L 223.358853 310.850917 
L 223.603427 310.740481 
L 224.624924 310.280095 
L 224.869497 310.169659 
L 225.890995 309.709273 
L 226.135568 309.598837 
L 227.157065 309.138451 
L 227.401639 309.028015 
L 228.423136 308.56763 
L 228.667709 308.457193 
L 229.689207 307.996808 
L 229.93378 307.886371 
L 230.955277 307.425986 
L 231.199851 307.31555 
L 232.221348 306.855164 
L 232.465921 306.744725 
L 233.487418 306.284342 
L 233.731992 306.173903 
L 234.753489 305.71352 
L 234.99733 305.603327 
L 236.01956 305.142695 
L 236.264133 305.032259 
L 237.28563 304.571873 
L 237.530204 304.461437 
L 238.551701 304.001051 
L 238.796275 303.890615 
L 239.817772 303.43023 
L 240.062345 303.319793 
L 241.083842 302.859408 
L 241.328416 302.748972 
L 242.349913 302.288586 
L 242.594486 302.17815 
L 243.615984 301.717764 
L 243.860557 301.607328 
L 244.882054 301.146942 
L 245.126628 301.036506 
L 246.148125 300.57612 
L 246.392698 300.465684 
L 247.414196 300.005298 
L 247.658769 299.894862 
L 248.680266 299.434476 
L 248.92484 299.32404 
L 249.946337 298.863655 
L 250.19091 298.753218 
L 251.212407 298.292833 
L 251.456981 298.182396 
L 252.478478 297.722011 
L 252.723052 297.611575 
L 253.744549 297.151189 
L 253.989122 297.04075 
L 255.010619 296.580367 
L 255.255193 296.469928 
L 256.27669 296.009542 
L 256.521264 295.899106 
L 257.542761 295.43872 
L 257.787334 295.328284 
L 258.808831 294.867898 
L 259.053405 294.757462 
L 260.074902 294.297076 
L 260.319475 294.18664 
L 261.340973 293.726255 
L 261.585546 293.615818 
L 262.607043 293.155433 
L 262.851617 293.044997 
L 263.873114 292.584611 
L 264.117687 292.474175 
L 265.139184 292.013789 
L 265.383758 291.903353 
L 266.405255 291.442967 
L 266.649829 291.332531 
L 267.671326 290.872145 
L 267.915899 290.761709 
L 268.937396 290.301323 
L 269.18197 290.190887 
L 270.203467 289.730501 
L 270.448041 289.620065 
L 271.469538 289.15968 
L 271.714111 289.049243 
L 272.735608 288.588858 
L 272.980182 288.478422 
L 274.001679 288.018036 
L 274.246252 287.9076 
L 275.26775 287.447214 
L 275.512323 287.336775 
L 276.53382 286.876392 
L 276.777662 286.766199 
L 277.799891 286.305567 
L 278.044464 286.195131 
L 279.065962 285.734745 
L 279.310535 285.624309 
L 280.332032 285.163923 
L 280.576606 285.053487 
L 281.598103 284.593102 
L 281.842676 284.482665 
L 282.864173 284.02228 
L 283.108747 283.911843 
L 284.130244 283.451458 
L 284.374818 283.341022 
L 285.396315 282.880636 
L 285.640888 282.7702 
L 286.662385 282.309814 
L 286.906959 282.199378 
L 287.928456 281.738992 
L 288.17303 281.628556 
L 289.194527 281.16817 
L 289.4391 281.057734 
L 290.460597 280.597348 
L 290.705171 280.486912 
L 291.726668 280.026527 
L 291.971241 279.91609 
L 292.992739 279.455705 
L 293.237312 279.345268 
L 294.258809 278.884883 
L 294.503383 278.774447 
L 295.52488 278.314061 
L 295.769453 278.203622 
L 296.790951 277.743239 
L 297.035524 277.6328 
L 298.057021 277.172417 
L 298.300862 277.062224 
L 299.323092 276.601592 
L 299.567665 276.491156 
L 300.589162 276.03077 
L 300.833736 275.920334 
L 301.855233 275.459948 
L 302.099807 275.349512 
L 303.121304 274.889127 
L 303.365877 274.77869 
L 304.387374 274.318305 
L 304.631948 274.207868 
L 305.653445 273.747483 
L 305.898019 273.637047 
L 306.919516 273.176661 
L 307.164089 273.066225 
L 308.185586 272.605839 
L 308.43016 272.495403 
L 309.451657 272.035017 
L 309.69623 271.924581 
L 310.717728 271.464195 
L 310.962301 271.353759 
L 311.983798 270.893373 
L 312.228372 270.782937 
L 313.249869 270.322552 
L 313.494442 270.212115 
L 314.515939 269.75173 
L 314.760513 269.641293 
L 315.78201 269.180908 
L 316.026584 269.070472 
L 317.048081 268.610086 
L 317.292654 268.499647 
L 318.314151 268.039264 
L 318.558725 267.928825 
L 319.580222 267.468442 
L 319.824063 267.358249 
L 320.846293 266.897617 
L 321.090866 266.787181 
L 322.112363 266.326795 
L 322.356937 266.216359 
L 323.378434 265.755973 
L 323.623007 265.645537 
L 324.644505 265.185152 
L 324.889078 265.074715 
L 325.910575 264.61433 
L 326.155149 264.503894 
L 327.176646 264.043508 
L 327.421219 263.933072 
L 328.442717 263.472686 
L 328.68729 263.36225 
L 329.708787 262.901864 
L 329.953361 262.791428 
L 330.974858 262.331042 
L 331.219431 262.220606 
L 332.240928 261.76022 
L 332.485502 261.649784 
L 333.506999 261.189398 
L 333.751573 261.078962 
L 334.77307 260.618577 
L 335.017643 260.50814 
L 336.03914 260.047755 
L 336.283714 259.937319 
L 337.305211 259.476933 
L 337.549785 259.366497 
L 338.571282 258.906111 
L 338.815855 258.795672 
L 339.837352 258.335289 
L 340.081926 258.22485 
L 341.103423 257.764464 
L 341.347996 257.654028 
L 342.369494 257.193642 
L 342.614067 257.083206 
L 343.635564 256.62282 
L 343.880138 256.512384 
L 344.901635 256.051998 
L 345.146208 255.941562 
L 346.167706 255.481177 
L 346.412279 255.37074 
L 347.433776 254.910355 
L 347.67835 254.799919 
L 348.699847 254.339533 
L 348.94442 254.229097 
L 349.965917 253.768711 
L 350.210491 253.658275 
L 351.231988 253.197889 
L 351.476562 253.087453 
L 352.498059 252.627067 
L 352.742632 252.516631 
L 353.764129 252.056245 
L 354.008703 251.945809 
L 355.0302 251.485423 
L 355.274774 251.374987 
L 356.296271 250.914602 
L 356.540844 250.804165 
L 357.562341 250.34378 
L 357.806915 250.233344 
L 358.828412 249.772958 
L 359.072985 249.662522 
L 360.094483 249.202136 
L 360.339056 249.091697 
L 361.360553 248.631314 
L 361.604394 248.521121 
L 362.626624 248.060489 
L 362.871197 247.950053 
L 363.892695 247.489667 
L 364.137268 247.379231 
L 365.158765 246.918845 
L 365.403339 246.808409 
L 366.424836 246.348024 
L 366.669409 246.237587 
L 367.690906 245.777202 
L 367.93548 245.666765 
L 368.956977 245.20638 
L 369.201551 245.095944 
L 370.223048 244.635558 
L 370.467621 244.525122 
L 371.489118 244.064736 
L 371.733692 243.9543 
L 372.755189 243.493914 
L 372.999762 243.383478 
L 374.02126 242.923092 
L 374.265833 242.812656 
L 375.28733 242.35227 
L 375.531904 242.241834 
L 376.553401 241.781449 
L 376.797974 241.671012 
L 377.819472 241.210627 
L 378.064045 241.10019 
L 379.085542 240.639805 
L 379.330116 240.529369 
L 380.351613 240.068983 
L 380.596186 239.958544 
L 381.617683 239.498161 
L 381.862257 239.387722 
L 382.883754 238.927339 
L 383.127595 238.817146 
L 384.149825 238.356514 
L 384.394398 238.246078 
L 385.415895 237.785692 
L 385.660469 237.675256 
L 386.681966 237.21487 
L 386.92654 237.104434 
L 387.948037 236.644049 
L 388.19261 236.533612 
L 389.214107 236.073227 
L 389.458681 235.96279 
L 390.480178 235.502405 
L 390.724751 235.391969 
L 391.746249 234.931583 
L 391.990822 234.821147 
L 393.012319 234.360761 
L 393.256893 234.250325 
L 394.27839 233.789939 
L 394.522963 233.679503 
L 395.544461 233.219117 
L 395.789034 233.108681 
L 396.810531 232.648295 
L 397.055105 232.537859 
L 398.076602 232.077474 
L 398.321175 231.967037 
L 399.342672 231.506652 
L 399.587246 231.396215 
L 400.608743 230.93583 
L 400.853317 230.825394 
L 401.874814 230.365008 
L 402.119387 230.254569 
L 403.140884 229.794186 
L 403.385458 229.683747 
L 404.406955 229.223364 
L 404.650796 229.113171 
L 405.673026 228.652539 
L 405.917599 228.542103 
L 406.939096 228.081717 
L 407.18367 227.971281 
L 408.205167 227.510895 
L 408.44974 227.400459 
L 409.471238 226.940074 
L 409.715811 226.829637 
L 410.737308 226.369252 
L 410.981882 226.258816 
L 412.003379 225.79843 
L 412.247952 225.687994 
L 413.26945 225.227608 
L 413.514023 225.117172 
L 414.53552 224.656786 
L 414.780094 224.54635 
L 415.801591 224.085964 
L 416.046164 223.975528 
L 417.067661 223.515142 
L 417.312235 223.404706 
L 418.333732 222.94432 
L 418.578306 222.833884 
L 419.599803 222.373499 
L 419.844376 222.263062 
L 420.865873 221.802677 
L 421.110447 221.692241 
L 422.131944 221.231855 
L 422.376518 221.121419 
L 423.398015 220.661033 
L 423.642588 220.550594 
L 424.664085 220.090211 
L 424.908659 219.979772 
L 425.930156 219.519386 
L 426.174729 219.40895 
L 427.196227 218.948564 
L 427.4408 218.838128 
L 428.462297 218.377742 
L 428.706871 218.267306 
L 429.728368 217.806921 
L 429.972941 217.696484 
L 430.994438 217.236099 
L 431.239012 217.125662 
L 432.260509 216.665277 
L 432.505083 216.554841 
L 433.52658 216.094455 
L 433.771153 215.984019 
L 434.79265 215.523633 
L 435.037224 215.413197 
L 436.058721 214.952811 
L 436.303295 214.842375 
L 437.324792 214.381989 
L 437.569365 214.271553 
L 438.590862 213.811167 
L 438.835436 213.700731 
L 439.856933 213.240346 
L 440.101506 213.129909 
L 441.123004 212.669524 
L 441.367577 212.559087 
L 442.389074 212.098702 
L 442.633648 211.988266 
L 443.655145 211.52788 
L 443.899718 211.417444 
L 444.921216 210.957058 
L 445.165789 210.846619 
L 446.187286 210.386236 
L 446.431127 210.276043 
L 447.453357 209.815411 
L 447.69793 209.704975 
L 448.719427 209.244589 
L 448.964001 209.134153 
L 449.985498 208.673767 
L 450.230072 208.563331 
L 451.251569 208.102946 
L 451.496142 207.992509 
L 452.517639 207.532124 
L 452.762213 207.421687 
L 453.78371 206.961302 
L 454.028284 206.850866 
L 455.049781 206.39048 
L 455.294354 206.280044 
L 456.315851 205.819658 
L 456.560425 205.709222 
L 457.581922 205.248836 
L 457.826495 205.1384 
L 458.847993 204.678014 
L 459.092566 204.567578 
L 460.114063 204.107192 
L 460.358637 203.996756 
L 461.380134 203.536371 
L 461.624707 203.425934 
L 462.646205 202.965549 
L 462.890778 202.855112 
L 463.912275 202.394727 
L 464.156849 202.284291 
L 465.178346 201.823905 
L 465.422919 201.713466 
L 466.444416 201.253083 
L 466.68899 201.142644 
L 467.710487 200.682261 
L 467.954328 200.572068 
L 468.976558 200.111436 
L 469.221131 200.001 
L 470.242628 199.540614 
L 470.487202 199.430178 
L 471.508699 198.969792 
L 471.753273 198.859356 
L 472.77477 198.398971 
L 473.019343 198.288534 
L 474.04084 197.828149 
L 474.285414 197.717713 
L 475.306911 197.257327 
L 475.551484 197.146891 
L 476.572982 196.686505 
L 476.817555 196.576069 
L 477.839052 196.115683 
L 478.083626 196.005247 
L 479.105123 195.544861 
L 479.349696 195.434425 
L 480.371193 194.974039 
L 480.615767 194.863603 
L 481.637264 194.403217 
L 481.881838 194.292781 
L 482.903335 193.832396 
L 483.147908 193.721959 
L 484.169405 193.261574 
L 484.413979 193.151138 
L 485.435476 192.690752 
L 485.68005 192.580316 
L 486.701547 192.11993 
L 486.94612 192.009491 
L 487.967617 191.549108 
L 488.212191 191.438669 
L 489.233688 190.978286 
L 489.477529 190.868093 
L 490.499759 190.407461 
L 490.744332 190.297025 
L 491.765829 189.836639 
L 492.010403 189.726203 
L 493.0319 189.265817 
L 493.276473 189.155381 
L 494.297971 188.694996 
L 494.542544 188.584559 
L 495.564041 188.124174 
L 495.808615 188.013738 
L 496.830112 187.553352 
L 497.074685 187.442916 
L 498.096182 186.98253 
L 498.340756 186.872094 
L 499.362253 186.411708 
L 499.606827 186.301272 
L 500.628324 185.840886 
L 500.872897 185.73045 
L 501.894394 185.270064 
L 502.138968 185.159628 
L 503.160465 184.699242 
L 503.405039 184.588806 
L 504.426536 184.128421 
L 504.671109 184.017984 
L 505.692606 183.557599 
L 505.93718 183.447163 
L 506.958677 182.986777 
L 507.20325 182.876341 
L 508.224748 182.415955 
L 508.469321 182.305516 
L 509.490818 181.845133 
L 509.735392 181.734694 
L 510.756889 181.274308 
L 511.001462 181.163872 
L 512.02296 180.703486 
L 512.267533 180.59305 
L 513.28903 180.132664 
L 513.533604 180.022228 
L 514.555101 179.561843 
L 514.799674 179.451406 
L 515.821171 178.991021 
L 516.065745 178.880584 
L 517.087242 178.420199 
L 517.331816 178.309763 
L 518.353313 177.849377 
L 518.597886 177.738941 
L 519.619383 177.278555 
L 519.863957 177.168119 
L 520.885454 176.707733 
L 521.130028 176.597297 
L 522.151525 176.136911 
L 522.396098 176.026475 
L 523.417595 175.566089 
L 523.662169 175.455653 
L 524.683666 174.995268 
L 524.928239 174.884831 
L 525.949737 174.424446 
L 526.19431 174.314009 
L 527.215807 173.853624 
L 527.460381 173.743188 
L 528.481878 173.282802 
L 528.726451 173.172366 
L 529.747949 172.71198 
L 529.992522 172.601541 
L 531.014019 172.141158 
L 531.25786 172.030965 
L 532.28009 171.570333 
L 532.524663 171.459897 
L 533.54616 170.999511 
L 533.790734 170.889075 
L 534.812231 170.428689 
L 535.056805 170.318253 
L 536.078302 169.857868 
L 536.322875 169.747431 
L 537.344372 169.287046 
L 537.588946 169.176609 
L 538.610443 168.716224 
L 538.855016 168.605788 
L 539.876514 168.145402 
L 540.121087 168.034966 
L 541.142584 167.57458 
L 541.387158 167.464144 
L 542.408655 167.003758 
L 542.653228 166.893322 
L 543.674726 166.432936 
L 543.919299 166.3225 
L 544.940796 165.862114 
L 545.18537 165.751678 
L 546.206867 165.291293 
L 546.45144 165.180856 
L 547.472937 164.720471 
L 547.717511 164.610034 
L 548.739008 164.149649 
L 548.983582 164.039213 
L 550.005079 163.578827 
L 550.249652 163.468388 
L 551.271149 163.008005 
L 551.515723 162.897566 
L 552.53722 162.437183 
L 552.781061 162.32699 
L 553.803291 161.866358 
L 554.047864 161.755922 
L 555.069361 161.295536 
L 555.313935 161.1851 
L 556.335432 160.724714 
L 556.580005 160.614278 
L 557.601503 160.153893 
L 557.846076 160.043456 
L 558.867573 159.583071 
L 559.112147 159.472635 
L 560.133644 159.012249 
L 560.378217 158.901813 
L 561.399715 158.441427 
L 561.644288 158.330991 
L 562.665785 157.870605 
L 562.910359 157.760169 
L 563.931856 157.299783 
L 564.176429 157.189347 
L 565.197926 156.728961 
L 565.4425 156.618525 
L 566.463997 156.158139 
L 566.708571 156.047703 
L 567.730068 155.587318 
L 567.974641 155.476881 
L 568.996138 155.016496 
L 569.240712 154.90606 
L 570.262209 154.445674 
L 570.506783 154.335238 
L 571.52828 153.874852 
L 571.772853 153.764413 
L 572.79435 153.30403 
L 573.038924 153.193591 
L 574.060421 152.733208 
L 574.304262 152.623015 
L 575.326492 152.162383 
L 575.571065 152.051947 
L 576.592562 151.591561 
L 576.837136 151.481125 
L 577.858633 151.02074 
L 578.103206 150.910303 
L 579.124704 150.449918 
L 579.369277 150.339481 
L 580.390774 149.879096 
L 580.635348 149.76866 
L 581.656845 149.308274 
L 581.901418 149.197838 
L 582.922915 148.737452 
L 583.167489 148.627016 
L 584.188986 148.16663 
L 584.43356 148.056194 
L 585.455057 147.595808 
L 585.69963 147.485372 
L 586.721127 147.024986 
L 586.965701 146.91455 
L 587.987198 146.454164 
L 588.231772 146.343728 
L 589.253269 145.883343 
L 589.497842 145.772906 
L 590.519339 145.312521 
L 590.763913 145.202085 
L 591.78541 144.741699 
L 592.029983 144.631263 
L 593.051481 144.170877 
L 593.296054 144.060438 
L 594.317551 143.600055 
L 594.562125 143.489616 
L 595.583622 143.02923 
L 595.828195 142.918794 
L 596.849692 142.458408 
L 597.094266 142.347972 
L 598.115763 141.887586 
L 598.360337 141.77715 
L 599.381834 141.316765 
L 599.626407 141.206328 
L 600.647904 140.745943 
L 600.892478 140.635506 
L 601.913975 140.175121 
L 602.158549 140.064685 
L 603.180046 139.604299 
L 603.424619 139.493863 
L 604.446116 139.033477 
L 604.69069 138.923041 
L 605.712187 138.462655 
L 605.95676 138.352219 
L 606.978258 137.891833 
L 607.222831 137.781397 
L 608.244328 137.321011 
L 608.488902 137.210575 
L 609.510399 136.75019 
L 609.754972 136.639753 
L 610.77647 136.179368 
L 611.021043 136.068931 
L 612.04254 135.608546 
L 612.287114 135.49811 
L 613.308611 135.037724 
L 613.553184 134.927288 
L 614.574681 134.466902 
L 614.819255 134.356463 
L 615.840752 133.89608 
L 616.084593 133.785887 
L 617.106823 133.325255 
L 617.351396 133.214819 
L 618.372893 132.754433 
L 618.617467 132.643997 
L 619.638964 132.183611 
L 619.883538 132.073175 
L 620.905035 131.61279 
L 621.149608 131.502353 
L 622.171105 131.041968 
L 622.415679 130.931532 
L 623.437176 130.471146 
L 623.681749 130.36071 
L 624.703247 129.900324 
L 624.94782 129.789888 
L 625.969317 129.329502 
L 626.213891 129.219066 
L 627.235388 128.75868 
L 627.479961 128.648244 
L 628.501459 128.187858 
L 628.746032 128.077422 
L 629.767529 127.617036 
L 630.012103 127.5066 
L 631.0336 127.046215 
L 631.278173 126.935778 
L 632.29967 126.475393 
L 632.544244 126.364956 
L 633.565741 125.904571 
L 633.810315 125.794135 
L 634.831812 125.333749 
L 635.076385 125.22331 
L 636.097882 124.762927 
L 636.342456 124.652488 
L 637.363953 124.192105 
L 637.607794 124.081912 
L 638.630024 123.62128 
L 638.874597 123.510844 
L 639.896094 123.050458 
L 640.140668 122.940022 
L 641.162165 122.479636 
L 641.406738 122.3692 
L 642.428236 121.908815 
L 642.672809 121.798378 
L 643.694306 121.337993 
L 643.93888 121.227557 
L 644.960377 120.767171 
L 645.20495 120.656735 
L 646.226447 120.196349 
L 646.471021 120.085913 
L 647.492518 119.625527 
L 647.737092 119.515091 
L 648.758589 119.054705 
L 649.003162 118.944269 
L 650.024659 118.483883 
L 650.269233 118.373447 
L 651.29073 117.913061 
L 651.535304 117.802625 
L 652.556801 117.34224 
L 652.801374 117.231803 
L 653.822871 116.771418 
L 654.067445 116.660982 
L 655.088942 116.200596 
L 655.333515 116.09016 
L 656.355013 115.629774 
L 656.599586 115.519335 
L 657.621083 115.058952 
L 657.865657 114.948513 
L 658.887154 114.48813 
L 659.130995 114.377937 
L 660.153225 113.917305 
L 660.397798 113.806869 
L 661.419295 113.346483 
L 661.663869 113.236047 
L 662.685366 112.775662 
L 662.929939 112.665225 
L 663.951436 112.20484 
L 664.19601 112.094403 
L 665.217507 111.634018 
L 665.462081 111.523582 
L 666.483578 111.063196 
L 666.728151 110.95276 
L 667.749648 110.492374 
L 667.994222 110.381938 
L 669.015719 109.921552 
L 669.260293 109.811116 
L 670.28179 109.35073 
L 670.526363 109.240294 
L 671.54786 108.779908 
L 671.792434 108.669472 
L 672.813931 108.209087 
L 673.058504 108.09865 
L 674.080002 107.638265 
L 674.324575 107.527828 
L 675.346072 107.067443 
L 675.590646 106.957007 
L 676.612143 106.496621 
L 676.856716 106.386185 
L 677.878214 105.925799 
L 678.122787 105.81536 
L 679.144284 105.354977 
L 679.388858 105.244538 
L 680.410355 104.784152 
L 680.654928 104.673716 
L 681.676425 104.21333 
L 681.920999 104.102894 
L 682.942496 103.642508 
L 683.18707 103.532072 
L 684.208567 103.071687 
L 684.45314 102.96125 
L 685.474637 102.500865 
L 685.719211 102.390428 
L 686.740708 101.930043 
L 686.985282 101.819607 
L 688.006779 101.359221 
L 688.251352 101.248785 
L 689.272849 100.788399 
L 689.517423 100.677963 
L 690.53892 100.217577 
L 690.783493 100.107141 
L 691.804991 99.646755 
L 692.049564 99.536319 
L 693.071061 99.075933 
L 693.315635 98.965497 
L 694.337132 98.505112 
L 694.581705 98.394675 
L 695.603203 97.93429 
L 695.847776 97.823853 
L 696.869273 97.363468 
L 697.113847 97.253032 
L 698.135344 96.792646 
L 698.379917 96.68221 
L 699.401414 96.221824 
L 699.645988 96.111385 
L 700.667485 95.651002 
L 700.911326 95.540809 
L 701.933556 95.080177 
L 702.178129 94.969741 
L 703.199626 94.509355 
L 703.4442 94.398919 
L 704.465697 93.938533 
L 704.710271 93.828097 
L 705.731768 93.367712 
L 705.976341 93.257275 
L 706.997838 92.79689 
L 707.242412 92.686454 
L 708.263909 92.226068 
L 708.508482 92.115632 
L 709.52998 91.655246 
L 709.774553 91.54481 
L 710.79605 91.084424 
L 711.040624 90.973988 
L 712.062121 90.513602 
L 712.306694 90.403166 
L 713.328191 89.94278 
L 713.572765 89.832344 
L 714.594262 89.371958 
L 714.838836 89.261522 
L 715.860333 88.801137 
L 716.104906 88.6907 
L 717.126403 88.230315 
L 717.370977 88.119879 
L 718.392474 87.659493 
L 718.637048 87.549057 
L 719.658545 87.088671 
L 719.903118 86.978232 
L 720.924615 86.517849 
L 721.169189 86.40741 
L 722.190686 85.947027 
L 722.434527 85.836834 
L 723.456757 85.376202 
L 723.70133 85.265766 
L 724.722827 84.80538 
L 724.967401 84.694944 
L 725.988898 84.234558 
L 726.233471 84.124122 
L 727.254969 83.663737 
L 727.499542 83.5533 
L 728.521039 83.092915 
L 728.765613 82.982479 
L 729.78711 82.522093 
L 730.031683 82.411657 
L 731.05318 81.951271 
L 731.297754 81.840835 
L 732.319251 81.380449 
L 732.563825 81.270013 
L 733.585322 80.809627 
L 733.829895 80.699191 
L 734.851392 80.238805 
L 735.095966 80.128369 
L 736.117463 79.667983 
L 736.362037 79.557547 
L 737.383534 79.097162 
L 737.628107 78.986725 
L 738.649604 78.52634 
L 738.894178 78.415904 
L 739.915675 77.955518 
L 740.160248 77.845082 
L 741.181746 77.384696 
L 741.426319 77.274257 
L 742.447816 76.813874 
L 742.69239 76.703435 
L 743.713887 76.243052 
L 743.957728 76.132859 
L 744.979958 75.672227 
L 745.224531 75.561791 
L 746.246028 75.101405 
L 746.490602 74.990969 
L 747.512099 74.530584 
L 747.756672 74.420147 
L 748.778169 73.959762 
L 749.022743 73.849325 
L 750.04424 73.38894 
L 750.288814 73.278504 
L 751.310311 72.818118 
L 751.554884 72.707682 
L 752.576381 72.247296 
L 752.820955 72.13686 
L 753.842452 71.676474 
L 754.087026 71.566038 
L 755.108523 71.105652 
L 755.353096 70.995216 
L 756.374593 70.53483 
L 756.619167 70.424394 
L 757.640664 69.964009 
L 757.885237 69.853572 
L 758.906735 69.393187 
L 759.151308 69.28275 
L 760.172805 68.822365 
L 760.417379 68.711929 
L 761.438876 68.251543 
L 761.683449 68.141107 
L 762.704946 67.680721 
L 762.94952 67.570282 
L 763.971017 67.109899 
L 764.215591 66.99946 
L 765.237088 66.539074 
L 765.481661 66.428638 
L 766.503158 65.968252 
L 766.747732 65.857816 
L 767.769229 65.39743 
L 768.013803 65.286994 
L 769.0353 64.826609 
L 769.279873 64.716172 
L 770.30137 64.255787 
L 770.545944 64.14535 
L 771.567441 63.684965 
L 771.812014 63.574529 
L 772.833512 63.114143 
L 773.078085 63.003707 
L 774.099582 62.543321 
L 774.344156 62.432885 
L 775.365653 61.972499 
L 775.610226 61.862063 
L 776.631724 61.401677 
L 776.876297 61.291241 
L 777.897794 60.830855 
L 778.142368 60.720419 
L 779.163865 60.260034 
L 779.408438 60.149597 
L 780.429935 59.689212 
L 780.674509 59.578775 
L 781.696006 59.11839 
L 781.94058 59.007954 
L 782.962077 58.547568 
L 783.20665 58.437132 
L 784.228147 57.976746 
L 784.472721 57.866307 
L 785.494218 57.405924 
L 785.738059 57.295731 
L 786.760289 56.835099 
L 787.004862 56.724663 
L 788.026359 56.264277 
L 788.270933 56.153841 
L 789.29243 55.693455 
L 789.537003 55.583019 
L 790.558501 55.122634 
L 790.803074 55.012197 
L 791.824571 54.551812 
L 792.069145 54.441376 
L 793.090642 53.98099 
L 793.335215 53.870554 
L 794.356713 53.410168 
L 794.601286 53.299732 
L 795.622783 52.839346 
L 795.867357 52.72891 
L 796.888854 52.268524 
L 797.133427 52.158088 
L 798.154924 51.697702 
L 798.399498 51.587266 
L 799.420995 51.12688 
L 799.665569 51.016444 
L 800.687066 50.556059 
L 800.931639 50.445622 
L 801.953136 49.985237 
L 802.19771 49.874801 
L 803.219207 49.414415 
L 803.463781 49.303979 
L 804.485278 48.843593 
L 804.729851 48.733154 
L 805.751348 48.272771 
L 805.995922 48.162332 
L 807.017419 47.701949 
L 807.26126 47.591756 
L 808.28349 47.131124 
L 808.528063 47.020688 
L 809.54956 46.560302 
L 809.794134 46.449866 
L 810.815631 45.989481 
L 811.060204 45.879044 
L 812.081701 45.418659 
L 812.326275 45.308222 
L 813.347772 44.847837 
L 813.592346 44.737401 
L 814.613843 44.277015 
L 814.858416 44.166579 
L 815.879913 43.706193 
L 816.124487 43.595757 
L 816.587273 43.387273 
L 816.587273 43.387273 
" clip-path="url(#p39412aeed6)" style="fill: none; stroke: #bcbd22; stroke-width: 1.5; stroke-linecap: square"/>
   </g>
   <g id="patch_3">
    <path d="M 47.72 390.04 
L 47.72 26.88 
" style="fill: none; stroke: #000000; stroke-width: 0.8; stroke-linejoin: miter; stroke-linecap: square"/>
   </g>
   <g id="patch_4">
    <path d="M 853.2 390.04 
L 853.2 26.88 
" style="fill: none; stroke: #000000; stroke-width: 0.8; stroke-linejoin: miter; stroke-linecap: square"/>
   </g>
   <g id="patch_5">
    <path d="M 47.72 390.04 
L 853.2 390.04 
" style="fill: none; stroke: #000000; stroke-width: 0.8; stroke-linejoin: miter; stroke-linecap: square"/>
   </g>
   <g id="patch_6">
    <path d="M 47.72 26.88 
L 853.2 26.88 
" style="fill: none; stroke: #000000; stroke-width: 0.8; stroke-linejoin: miter; stroke-linecap: square"/>
   </g>
   <g id="text_17">
    <!-- Data Structure Overhead (Key Size=64) -->
    <g transform="translate(330.751563 20.88) scale(0.12 -0.12)">
     <defs>
      <path id="DejaVuSans-44" d="M 1259 4147 
L 1259 519 
L 2022 519 
Q 2988 519 3436 956 
Q 3884 1394 3884 2338 
Q 3884 3275 3436 3711 
Q 2988 4147 2022 4147 
L 1259 4147 
z
M 628 4666 
L 1925 4666 
Q 3281 4666 3915 4102 
Q 4550 3538 4550 2338 
Q 4550 1131 3912 565 
Q 3275 0 1925 0 
L 628 0 
L 628 4666 
z
" transform="scale(0.015625)"/>
      <path id="DejaVuSans-61" d="M 2194 1759 
Q 1497 1759 1228 1600 
Q 959 1441 959 1056 
Q 959 750 1161 570 
Q 1363 391 1709 391 
Q 2188 391 2477 730 
Q 2766 1069 2766 1631 
L 2766 1759 
L 2194 1759 
z
M 3341 1997 
L 3341 0 
L 2766 0 
L 2766 531 
Q 2569 213 2275 61 
Q 1981 -91 1556 -91 
Q 1019 -91 701 211 
Q 384 513 384 1019 
Q 384 1609 779 1909 
Q 1175 2209 1959 2209 
L 2766 2209 
L 2766 2266 
Q 2766 2663 2505 2880 
Q 2244 3097 1772 3097 
Q 1472 3097 1187 3025 
Q 903 2953 641 2809 
L 641 3341 
Q 956 3463 1253 3523 
Q 1550 3584 1831 3584 
Q 2591 3584 2966 3190 
Q 3341 2797 3341 1997 
z
" transform="scale(0.015625)"/>
      <path id="DejaVuSans-53" d="M 3425 4513 
L 3425 3897 
Q 3066 4069 2747 4153 
Q 2428 4238 2131 4238 
Q 1616 4238 1336 4038 
Q 1056 3838 1056 3469 
Q 1056 3159 1242 3001 
Q 1428 2844 1947 2747 
L 2328 2669 
Q 3034 2534 3370 2195 
Q 3706 1856 3706 1288 
Q 3706 609 3251 259 
Q 2797 -91 1919 -91 
Q 1588 -91 1214 -16 
Q 841 59 441 206 
L 441 856 
Q 825 641 1194 531 
Q 1563 422 1919 422 
Q 2459 422 2753 634 
Q 3047 847 3047 1241 
Q 3047 1584 2836 1778 
Q 2625 1972 2144 2069 
L 1759 2144 
Q 1053 2284 737 2584 
Q 422 2884 422 3419 
Q 422 4038 858 4394 
Q 1294 4750 2059 4750 
Q 2388 4750 2728 4690 
Q 3069 4631 3425 4513 
z
" transform="scale(0.015625)"/>
      <path id="DejaVuSans-63" d="M 3122 3366 
L 3122 2828 
Q 2878 2963 2633 3030 
Q 2388 3097 2138 3097 
Q 1578 3097 1268 2742 
Q 959 2388 959 1747 
Q 959 1106 1268 751 
Q 1578 397 2138 397 
Q 2388 397 2633 464 
Q 2878 531 3122 666 
L 3122 134 
Q 2881 22 2623 -34 
Q 2366 -91 2075 -91 
Q 1284 -91 818 406 
Q 353 903 353 1747 
Q 353 2603 823 3093 
Q 1294 3584 2113 3584 
Q 2378 3584 2631 3529 
Q 2884 3475 3122 3366 
z
" transform="scale(0.015625)"/>
      <path id="DejaVuSans-4f" d="M 2522 4238 
Q 1834 4238 1429 3725 
Q 1025 3213 1025 2328 
Q 1025 1447 1429 934 
Q 1834 422 2522 422 
Q 3209 422 3611 934 
Q 4013 1447 4013 2328 
Q 4013 3213 3611 3725 
Q 3209 4238 2522 4238 
z
M 2522 4750 
Q 3503 4750 4090 4092 
Q 4678 3434 4678 2328 
Q 4678 1225 4090 567 
Q 3503 -91 2522 -91 
Q 1538 -91 948 565 
Q 359 1222 359 2328 
Q 359 3434 948 4092 
Q 1538 4750 2522 4750 
z
" transform="scale(0.015625)"/>
      <path id="DejaVuSans-76" d="M 191 3500 
L 800 3500 
L 1894 563 
L 2988 3500 
L 3597 3500 
L 2284 0 
L 1503 0 
L 191 3500 
z
" transform="scale(0.015625)"/>
      <path id="DejaVuSans-68" d="M 3513 2113 
L 3513 0 
L 2938 0 
L 2938 2094 
Q 2938 2591 2744 2837 
Q 2550 3084 2163 3084 
Q 1697 3084 1428 2787 
Q 1159 2491 1159 1978 
L 1159 0 
L 581 0 
L 581 4863 
L 1159 4863 
L 1159 2956 
Q 1366 3272 1645 3428 
Q 1925 3584 2291 3584 
Q 2894 3584 3203 3211 
Q 3513 2838 3513 2113 
z
" transform="scale(0.015625)"/>
      <path id="DejaVuSans-64" d="M 2906 2969 
L 2906 4863 
L 3481 4863 
L 3481 0 
L 2906 0 
L 2906 525 
Q 2725 213 2448 61 
Q 2172 -91 1784 -91 
Q 1150 -91 751 415 
Q 353 922 353 1747 
Q 353 2572 751 3078 
Q 1150 3584 1784 3584 
Q 2172 3584 2448 3432 
Q 2725 3281 2906 2969 
z
M 947 1747 
Q 947 1113 1208 752 
Q 1469 391 1925 391 
Q 2381 391 2643 752 
Q 2906 1113 2906 1747 
Q 2906 2381 2643 2742 
Q 2381 3103 1925 3103 
Q 1469 3103 1208 2742 
Q 947 2381 947 1747 
z
" transform="scale(0.015625)"/>
      <path id="DejaVuSans-69" d="M 603 3500 
L 1178 3500 
L 1178 0 
L 603 0 
L 603 3500 
z
M 603 4863 
L 1178 4863 
L 1178 4134 
L 603 4134 
L 603 4863 
z
" transform="scale(0.015625)"/>
      <path id="DejaVuSans-7a" d="M 353 3500 
L 3084 3500 
L 3084 2975 
L 922 459 
L 3084 459 
L 3084 0 
L 275 0 
L 275 525 
L 2438 3041 
L 353 3041 
L 353 3500 
z
" transform="scale(0.015625)"/>
      <path id="DejaVuSans-3d" d="M 678 2906 
L 4684 2906 
L 4684 2381 
L 678 2381 
L 678 2906 
z
M 678 1631 
L 4684 1631 
L 4684 1100 
L 678 1100 
L 678 1631 
z
" transform="scale(0.015625)"/>
     </defs>
     <use xlink:href="#DejaVuSans-44"/>
     <use xlink:href="#DejaVuSans-61" transform="translate(77.001953 0)"/>
     <use xlink:href="#DejaVuSans-74" transform="translate(138.28125 0)"/>
     <use xlink:href="#DejaVuSans-61" transform="translate(177.490234 0)"/>
     <use xlink:href="#DejaVuSans-20" transform="translate(238.769531 0)"/>
     <use xlink:href="#DejaVuSans-53" transform="translate(270.556641 0)"/>
     <use xlink:href="#DejaVuSans-74" transform="translate(334.033203 0)"/>
     <use xlink:href="#DejaVuSans-72" transform="translate(373.242188 0)"/>
     <use xlink:href="#DejaVuSans-75" transform="translate(414.355469 0)"/>
     <use xlink:href="#DejaVuSans-63" transform="translate(477.734375 0)"/>
     <use xlink:href="#DejaVuSans-74" transform="translate(532.714844 0)"/>
     <use xlink:href="#DejaVuSans-75" transform="translate(571.923828 0)"/>
     <use xlink:href="#DejaVuSans-72" transform="translate(635.302734 0)"/>
     <use xlink:href="#DejaVuSans-65" transform="translate(674.166016 0)"/>
     <use xlink:href="#DejaVuSans-20" transform="translate(735.689453 0)"/>
     <use xlink:href="#DejaVuSans-4f" transform="translate(767.476562 0)"/>
     <use xlink:href="#DejaVuSans-76" transform="translate(846.1875 0)"/>
     <use xlink:href="#DejaVuSans-65" transform="translate(905.367188 0)"/>
     <use xlink:href="#DejaVuSans-72" transform="translate(966.890625 0)"/>
     <use xlink:href="#DejaVuSans-68" transform="translate(1006.253906 0)"/>
     <use xlink:href="#DejaVuSans-65" transform="translate(1069.632812 0)"/>
     <use xlink:href="#DejaVuSans-61" transform="translate(1131.15625 0)"/>
     <use xlink:href="#DejaVuSans-64" transform="translate(1192.435547 0)"/>
     <use xlink:href="#DejaVuSans-20" transform="translate(1255.912109 0)"/>
     <use xlink:href="#DejaVuSans-28" transform="translate(1287.699219 0)"/>
     <use xlink:href="#DejaVuSans-4b" transform="translate(1326.712891 0)"/>
     <use xlink:href="#DejaVuSans-65" transform="translate(1387.289062 0)"/>
     <use xlink:href="#DejaVuSans-79" transform="translate(1448.8125 0)"/>
     <use xlink:href="#DejaVuSans-20" transform="translate(1507.992188 0)"/>
     <use xlink:href="#DejaVuSans-53" transform="translate(1539.779297 0)"/>
     <use xlink:href="#DejaVuSans-69" transform="translate(1603.255859 0)"/>
     <use xlink:href="#DejaVuSans-7a" transform="translate(1631.039062 0)"/>
     <use xlink:href="#DejaVuSans-65" transform="translate(1683.529297 0)"/>
     <use xlink:href="#DejaVuSans-3d" transform="translate(1745.052734 0)"/>
     <use xlink:href="#DejaVuSans-36" transform="translate(1828.841797 0)"/>
     <use xlink:href="#DejaVuSans-34" transform="translate(1892.464844 0)"/>
     <use xlink:href="#DejaVuSans-29" transform="translate(1956.087891 0)"/>
    </g>
   </g>
   <g id="legend_1">
    <g id="patch_7">
     <path d="M 54.72 166.983125 
L 230.818438 166.983125 
Q 232.818438 166.983125 232.818438 164.983125 
L 232.818438 33.88 
Q 232.818438 31.88 230.818438 31.88 
L 54.72 31.88 
Q 52.72 31.88 52.72 33.88 
L 52.72 164.983125 
Q 52.72 166.983125 54.72 166.983125 
z
" style="fill: #ffffff; opacity: 0.8; stroke: #cccccc; stroke-linejoin: miter"/>
    </g>
    <g id="line2d_22">
     <path d="M 56.72 39.978437 
L 66.72 39.978437 
L 76.72 39.978437 
" style="fill: none; stroke: #1f77b4; stroke-width: 1.5; stroke-linecap: square"/>
    </g>
    <g id="text_18">
     <!-- Empty Keyset -->
     <g transform="translate(84.72 43.478437) scale(0.1 -0.1)">
      <defs>
       <path id="DejaVuSans-45" d="M 628 4666 
L 3578 4666 
L 3578 4134 
L 1259 4134 
L 1259 2753 
L 3481 2753 
L 3481 2222 
L 1259 2222 
L 1259 531 
L 3634 531 
L 3634 0 
L 628 0 
L 628 4666 
z
" transform="scale(0.015625)"/>
       <path id="DejaVuSans-70" d="M 1159 525 
L 1159 -1331 
L 581 -1331 
L 581 3500 
L 1159 3500 
L 1159 2969 
Q 1341 3281 1617 3432 
Q 1894 3584 2278 3584 
Q 2916 3584 3314 3078 
Q 3713 2572 3713 1747 
Q 3713 922 3314 415 
Q 2916 -91 2278 -91 
Q 1894 -91 1617 61 
Q 1341 213 1159 525 
z
M 3116 1747 
Q 3116 2381 2855 2742 
Q 2594 3103 2138 3103 
Q 1681 3103 1420 2742 
Q 1159 2381 1159 1747 
Q 1159 1113 1420 752 
Q 1681 391 2138 391 
Q 2594 391 2855 752 
Q 3116 1113 3116 1747 
z
" transform="scale(0.015625)"/>
      </defs>
      <use xlink:href="#DejaVuSans-45"/>
      <use xlink:href="#DejaVuSans-6d" transform="translate(63.183594 0)"/>
      <use xlink:href="#DejaVuSans-70" transform="translate(160.595703 0)"/>
      <use xlink:href="#DejaVuSans-74" transform="translate(224.072266 0)"/>
      <use xlink:href="#DejaVuSans-79" transform="translate(263.28125 0)"/>
      <use xlink:href="#DejaVuSans-20" transform="translate(322.460938 0)"/>
      <use xlink:href="#DejaVuSans-4b" transform="translate(354.248047 0)"/>
      <use xlink:href="#DejaVuSans-65" transform="translate(414.824219 0)"/>
      <use xlink:href="#DejaVuSans-79" transform="translate(476.347656 0)"/>
      <use xlink:href="#DejaVuSans-73" transform="translate(535.527344 0)"/>
      <use xlink:href="#DejaVuSans-65" transform="translate(587.626953 0)"/>
      <use xlink:href="#DejaVuSans-74" transform="translate(649.150391 0)"/>
     </g>
    </g>
    <g id="line2d_23">
     <path d="M 56.72 54.656563 
L 66.72 54.656563 
L 76.72 54.656563 
" style="fill: none; stroke: #ff7f0e; stroke-width: 1.5; stroke-linecap: square"/>
    </g>
    <g id="text_19">
     <!-- Vector -->
     <g transform="translate(84.72 58.156563) scale(0.1 -0.1)">
      <defs>
       <path id="DejaVuSans-56" d="M 1831 0 
L 50 4666 
L 709 4666 
L 2188 738 
L 3669 4666 
L 4325 4666 
L 2547 0 
L 1831 0 
z
" transform="scale(0.015625)"/>
      </defs>
      <use xlink:href="#DejaVuSans-56"/>
      <use xlink:href="#DejaVuSans-65" transform="translate(60.658203 0)"/>
      <use xlink:href="#DejaVuSans-63" transform="translate(122.181641 0)"/>
      <use xlink:href="#DejaVuSans-74" transform="translate(177.162109 0)"/>
      <use xlink:href="#DejaVuSans-6f" transform="translate(216.371094 0)"/>
      <use xlink:href="#DejaVuSans-72" transform="translate(277.552734 0)"/>
     </g>
    </g>
    <g id="line2d_24">
     <path d="M 56.72 69.334687 
L 66.72 69.334687 
L 76.72 69.334687 
" style="fill: none; stroke: #2ca02c; stroke-width: 1.5; stroke-linecap: square"/>
    </g>
    <g id="text_20">
     <!-- Vector + Optional + Hashset -->
     <g transform="translate(84.72 72.834687) scale(0.1 -0.1)">
      <defs>
       <path id="DejaVuSans-2b" d="M 2944 4013 
L 2944 2272 
L 4684 2272 
L 4684 1741 
L 2944 1741 
L 2944 0 
L 2419 0 
L 2419 1741 
L 678 1741 
L 678 2272 
L 2419 2272 
L 2419 4013 
L 2944 4013 
z
" transform="scale(0.015625)"/>
       <path id="DejaVuSans-6e" d="M 3513 2113 
L 3513 0 
L 2938 0 
L 2938 2094 
Q 2938 2591 2744 2837 
Q 2550 3084 2163 3084 
Q 1697 3084 1428 2787 
Q 1159 2491 1159 1978 
L 1159 0 
L 581 0 
L 581 3500 
L 1159 3500 
L 1159 2956 
Q 1366 3272 1645 3428 
Q 1925 3584 2291 3584 
Q 2894 3584 3203 3211 
Q 3513 2838 3513 2113 
z
" transform="scale(0.015625)"/>
       <path id="DejaVuSans-6c" d="M 603 4863 
L 1178 4863 
L 1178 0 
L 603 0 
L 603 4863 
z
" transform="scale(0.015625)"/>
       <path id="DejaVuSans-48" d="M 628 4666 
L 1259 4666 
L 1259 2753 
L 3553 2753 
L 3553 4666 
L 4184 4666 
L 4184 0 
L 3553 0 
L 3553 2222 
L 1259 2222 
L 1259 0 
L 628 0 
L 628 4666 
z
" transform="scale(0.015625)"/>
      </defs>
      <use xlink:href="#DejaVuSans-56"/>
      <use xlink:href="#DejaVuSans-65" transform="translate(60.658203 0)"/>
      <use xlink:href="#DejaVuSans-63" transform="translate(122.181641 0)"/>
      <use xlink:href="#DejaVuSans-74" transform="translate(177.162109 0)"/>
      <use xlink:href="#DejaVuSans-6f" transform="translate(216.371094 0)"/>
      <use xlink:href="#DejaVuSans-72" transform="translate(277.552734 0)"/>
      <use xlink:href="#DejaVuSans-20" transform="translate(318.666016 0)"/>
      <use xlink:href="#DejaVuSans-2b" transform="translate(350.453125 0)"/>
      <use xlink:href="#DejaVuSans-20" transform="translate(434.242188 0)"/>
      <use xlink:href="#DejaVuSans-4f" transform="translate(466.029297 0)"/>
      <use xlink:href="#DejaVuSans-70" transform="translate(544.740234 0)"/>
      <use xlink:href="#DejaVuSans-74" transform="translate(608.216797 0)"/>
      <use xlink:href="#DejaVuSans-69" transform="translate(647.425781 0)"/>
      <use xlink:href="#DejaVuSans-6f" transform="translate(675.208984 0)"/>
      <use xlink:href="#DejaVuSans-6e" transform="translate(736.390625 0)"/>
      <use xlink:href="#DejaVuSans-61" transform="translate(799.769531 0)"/>
      <use xlink:href="#DejaVuSans-6c" transform="translate(861.048828 0)"/>
      <use xlink:href="#DejaVuSans-20" transform="translate(888.832031 0)"/>
      <use xlink:href="#DejaVuSans-2b" transform="translate(920.619141 0)"/>
      <use xlink:href="#DejaVuSans-20" transform="translate(1004.408203 0)"/>
      <use xlink:href="#DejaVuSans-48" transform="translate(1036.195312 0)"/>
      <use xlink:href="#DejaVuSans-61" transform="translate(1111.390625 0)"/>
      <use xlink:href="#DejaVuSans-73" transform="translate(1172.669922 0)"/>
      <use xlink:href="#DejaVuSans-68" transform="translate(1224.769531 0)"/>
      <use xlink:href="#DejaVuSans-73" transform="translate(1288.148438 0)"/>
      <use xlink:href="#DejaVuSans-65" transform="translate(1340.248047 0)"/>
      <use xlink:href="#DejaVuSans-74" transform="translate(1401.771484 0)"/>
     </g>
    </g>
    <g id="line2d_25">
     <path d="M 56.72 84.012812 
L 66.72 84.012812 
L 76.72 84.012812 
" style="fill: none; stroke: #d62728; stroke-width: 1.5; stroke-linecap: square"/>
    </g>
    <g id="text_21">
     <!-- Vector + Hashset -->
     <g transform="translate(84.72 87.512812) scale(0.1 -0.1)">
      <use xlink:href="#DejaVuSans-56"/>
      <use xlink:href="#DejaVuSans-65" transform="translate(60.658203 0)"/>
      <use xlink:href="#DejaVuSans-63" transform="translate(122.181641 0)"/>
      <use xlink:href="#DejaVuSans-74" transform="translate(177.162109 0)"/>
      <use xlink:href="#DejaVuSans-6f" transform="translate(216.371094 0)"/>
      <use xlink:href="#DejaVuSans-72" transform="translate(277.552734 0)"/>
      <use xlink:href="#DejaVuSans-20" transform="translate(318.666016 0)"/>
      <use xlink:href="#DejaVuSans-2b" transform="translate(350.453125 0)"/>
      <use xlink:href="#DejaVuSans-20" transform="translate(434.242188 0)"/>
      <use xlink:href="#DejaVuSans-48" transform="translate(466.029297 0)"/>
      <use xlink:href="#DejaVuSans-61" transform="translate(541.224609 0)"/>
      <use xlink:href="#DejaVuSans-73" transform="translate(602.503906 0)"/>
      <use xlink:href="#DejaVuSans-68" transform="translate(654.603516 0)"/>
      <use xlink:href="#DejaVuSans-73" transform="translate(717.982422 0)"/>
      <use xlink:href="#DejaVuSans-65" transform="translate(770.082031 0)"/>
      <use xlink:href="#DejaVuSans-74" transform="translate(831.605469 0)"/>
     </g>
    </g>
    <g id="line2d_26">
     <path d="M 56.72 98.690938 
L 66.72 98.690938 
L 76.72 98.690938 
" style="fill: none; stroke: #9467bd; stroke-width: 1.5; stroke-linecap: square"/>
    </g>
    <g id="text_22">
     <!-- Bloom Filter -->
     <g transform="translate(84.72 102.190938) scale(0.1 -0.1)">
      <defs>
       <path id="DejaVuSans-42" d="M 1259 2228 
L 1259 519 
L 2272 519 
Q 2781 519 3026 730 
Q 3272 941 3272 1375 
Q 3272 1813 3026 2020 
Q 2781 2228 2272 2228 
L 1259 2228 
z
M 1259 4147 
L 1259 2741 
L 2194 2741 
Q 2656 2741 2882 2914 
Q 3109 3088 3109 3444 
Q 3109 3797 2882 3972 
Q 2656 4147 2194 4147 
L 1259 4147 
z
M 628 4666 
L 2241 4666 
Q 2963 4666 3353 4366 
Q 3744 4066 3744 3513 
Q 3744 3084 3544 2831 
Q 3344 2578 2956 2516 
Q 3422 2416 3680 2098 
Q 3938 1781 3938 1306 
Q 3938 681 3513 340 
Q 3088 0 2303 0 
L 628 0 
L 628 4666 
z
" transform="scale(0.015625)"/>
       <path id="DejaVuSans-46" d="M 628 4666 
L 3309 4666 
L 3309 4134 
L 1259 4134 
L 1259 2759 
L 3109 2759 
L 3109 2228 
L 1259 2228 
L 1259 0 
L 628 0 
L 628 4666 
z
" transform="scale(0.015625)"/>
      </defs>
      <use xlink:href="#DejaVuSans-42"/>
      <use xlink:href="#DejaVuSans-6c" transform="translate(68.603516 0)"/>
      <use xlink:href="#DejaVuSans-6f" transform="translate(96.386719 0)"/>
      <use xlink:href="#DejaVuSans-6f" transform="translate(157.568359 0)"/>
      <use xlink:href="#DejaVuSans-6d" transform="translate(218.75 0)"/>
      <use xlink:href="#DejaVuSans-20" transform="translate(316.162109 0)"/>
      <use xlink:href="#DejaVuSans-46" transform="translate(347.949219 0)"/>
      <use xlink:href="#DejaVuSans-69" transform="translate(398.21875 0)"/>
      <use xlink:href="#DejaVuSans-6c" transform="translate(426.001953 0)"/>
      <use xlink:href="#DejaVuSans-74" transform="translate(453.785156 0)"/>
      <use xlink:href="#DejaVuSans-65" transform="translate(492.994141 0)"/>
      <use xlink:href="#DejaVuSans-72" transform="translate(554.517578 0)"/>
     </g>
    </g>
    <g id="line2d_27">
     <path d="M 56.72 113.369062 
L 66.72 113.369062 
L 76.72 113.369062 
" style="fill: none; stroke: #8c564b; stroke-width: 1.5; stroke-linecap: square"/>
    </g>
    <g id="text_23">
     <!-- Vector + Bloom Filter -->
     <g transform="translate(84.72 116.869062) scale(0.1 -0.1)">
      <use xlink:href="#DejaVuSans-56"/>
      <use xlink:href="#DejaVuSans-65" transform="translate(60.658203 0)"/>
      <use xlink:href="#DejaVuSans-63" transform="translate(122.181641 0)"/>
      <use xlink:href="#DejaVuSans-74" transform="translate(177.162109 0)"/>
      <use xlink:href="#DejaVuSans-6f" transform="translate(216.371094 0)"/>
      <use xlink:href="#DejaVuSans-72" transform="translate(277.552734 0)"/>
      <use xlink:href="#DejaVuSans-20" transform="translate(318.666016 0)"/>
      <use xlink:href="#DejaVuSans-2b" transform="translate(350.453125 0)"/>
      <use xlink:href="#DejaVuSans-20" transform="translate(434.242188 0)"/>
      <use xlink:href="#DejaVuSans-42" transform="translate(466.029297 0)"/>
      <use xlink:href="#DejaVuSans-6c" transform="translate(534.632812 0)"/>
      <use xlink:href="#DejaVuSans-6f" transform="translate(562.416016 0)"/>
      <use xlink:href="#DejaVuSans-6f" transform="translate(623.597656 0)"/>
      <use xlink:href="#DejaVuSans-6d" transform="translate(684.779297 0)"/>
      <use xlink:href="#DejaVuSans-20" transform="translate(782.191406 0)"/>
      <use xlink:href="#DejaVuSans-46" transform="translate(813.978516 0)"/>
      <use xlink:href="#DejaVuSans-69" transform="translate(864.248047 0)"/>
      <use xlink:href="#DejaVuSans-6c" transform="translate(892.03125 0)"/>
      <use xlink:href="#DejaVuSans-74" transform="translate(919.814453 0)"/>
      <use xlink:href="#DejaVuSans-65" transform="translate(959.023438 0)"/>
      <use xlink:href="#DejaVuSans-72" transform="translate(1020.546875 0)"/>
     </g>
    </g>
    <g id="line2d_28">
     <path d="M 56.72 128.047187 
L 66.72 128.047187 
L 76.72 128.047187 
" style="fill: none; stroke: #e377c2; stroke-width: 1.5; stroke-linecap: square"/>
    </g>
    <g id="text_24">
     <!-- Vector + Hashmap -->
     <g transform="translate(84.72 131.547187) scale(0.1 -0.1)">
      <use xlink:href="#DejaVuSans-56"/>
      <use xlink:href="#DejaVuSans-65" transform="translate(60.658203 0)"/>
      <use xlink:href="#DejaVuSans-63" transform="translate(122.181641 0)"/>
      <use xlink:href="#DejaVuSans-74" transform="translate(177.162109 0)"/>
      <use xlink:href="#DejaVuSans-6f" transform="translate(216.371094 0)"/>
      <use xlink:href="#DejaVuSans-72" transform="translate(277.552734 0)"/>
      <use xlink:href="#DejaVuSans-20" transform="translate(318.666016 0)"/>
      <use xlink:href="#DejaVuSans-2b" transform="translate(350.453125 0)"/>
      <use xlink:href="#DejaVuSans-20" transform="translate(434.242188 0)"/>
      <use xlink:href="#DejaVuSans-48" transform="translate(466.029297 0)"/>
      <use xlink:href="#DejaVuSans-61" transform="translate(541.224609 0)"/>
      <use xlink:href="#DejaVuSans-73" transform="translate(602.503906 0)"/>
      <use xlink:href="#DejaVuSans-68" transform="translate(654.603516 0)"/>
      <use xlink:href="#DejaVuSans-6d" transform="translate(717.982422 0)"/>
      <use xlink:href="#DejaVuSans-61" transform="translate(815.394531 0)"/>
      <use xlink:href="#DejaVuSans-70" transform="translate(876.673828 0)"/>
     </g>
    </g>
    <g id="line2d_29">
     <path d="M 56.72 142.725312 
L 66.72 142.725312 
L 76.72 142.725312 
" style="fill: none; stroke: #7f7f7f; stroke-width: 1.5; stroke-linecap: square"/>
    </g>
    <g id="text_25">
     <!-- Cuckoo Filter -->
     <g transform="translate(84.72 146.225312) scale(0.1 -0.1)">
      <defs>
       <path id="DejaVuSans-43" d="M 4122 4306 
L 4122 3641 
Q 3803 3938 3442 4084 
Q 3081 4231 2675 4231 
Q 1875 4231 1450 3742 
Q 1025 3253 1025 2328 
Q 1025 1406 1450 917 
Q 1875 428 2675 428 
Q 3081 428 3442 575 
Q 3803 722 4122 1019 
L 4122 359 
Q 3791 134 3420 21 
Q 3050 -91 2638 -91 
Q 1578 -91 968 557 
Q 359 1206 359 2328 
Q 359 3453 968 4101 
Q 1578 4750 2638 4750 
Q 3056 4750 3426 4639 
Q 3797 4528 4122 4306 
z
" transform="scale(0.015625)"/>
       <path id="DejaVuSans-6b" d="M 581 4863 
L 1159 4863 
L 1159 1991 
L 2875 3500 
L 3609 3500 
L 1753 1863 
L 3688 0 
L 2938 0 
L 1159 1709 
L 1159 0 
L 581 0 
L 581 4863 
z
" transform="scale(0.015625)"/>
      </defs>
      <use xlink:href="#DejaVuSans-43"/>
      <use xlink:href="#DejaVuSans-75" transform="translate(69.824219 0)"/>
      <use xlink:href="#DejaVuSans-63" transform="translate(133.203125 0)"/>
      <use xlink:href="#DejaVuSans-6b" transform="translate(188.183594 0)"/>
      <use xlink:href="#DejaVuSans-6f" transform="translate(242.46875 0)"/>
      <use xlink:href="#DejaVuSans-6f" transform="translate(303.650391 0)"/>
      <use xlink:href="#DejaVuSans-20" transform="translate(364.832031 0)"/>
      <use xlink:href="#DejaVuSans-46" transform="translate(396.619141 0)"/>
      <use xlink:href="#DejaVuSans-69" transform="translate(446.888672 0)"/>
      <use xlink:href="#DejaVuSans-6c" transform="translate(474.671875 0)"/>
      <use xlink:href="#DejaVuSans-74" transform="translate(502.455078 0)"/>
      <use xlink:href="#DejaVuSans-65" transform="translate(541.664062 0)"/>
      <use xlink:href="#DejaVuSans-72" transform="translate(603.1875 0)"/>
     </g>
    </g>
    <g id="line2d_30">
     <path d="M 56.72 157.403437 
L 66.72 157.403437 
L 76.72 157.403437 
" style="fill: none; stroke: #bcbd22; stroke-width: 1.5; stroke-linecap: square"/>
    </g>
    <g id="text_26">
     <!-- B+ Tree -->
     <g transform="translate(84.72 160.903437) scale(0.1 -0.1)">
      <defs>
       <path id="DejaVuSans-54" d="M -19 4666 
L 3928 4666 
L 3928 4134 
L 2272 4134 
L 2272 0 
L 1638 0 
L 1638 4134 
L -19 4134 
L -19 4666 
z
" transform="scale(0.015625)"/>
      </defs>
      <use xlink:href="#DejaVuSans-42"/>
      <use xlink:href="#DejaVuSans-2b" transform="translate(68.603516 0)"/>
      <use xlink:href="#DejaVuSans-20" transform="translate(152.392578 0)"/>
      <use xlink:href="#DejaVuSans-54" transform="translate(184.179688 0)"/>
      <use xlink:href="#DejaVuSans-72" transform="translate(230.513672 0)"/>
      <use xlink:href="#DejaVuSans-65" transform="translate(269.376953 0)"/>
      <use xlink:href="#DejaVuSans-65" transform="translate(330.900391 0)"/>
     </g>
    </g>
   </g>
  </g>
 </g>
 <defs>
  <clipPath id="p39412aeed6">
   <rect x="47.72" y="26.88" width="805.48" height="363.16"/>
  </clipPath>
 </defs>
</svg>
